 http://www.imdb.com/title/tt0203119/

In the twilight of his career, Gary, a retired gangster, has just retired to a posh Spanish hacienda with his loving wife Deedee. However, all is not well in paradise. Rumbling over the horizon comes Don "Malky" Logan. Logan is the one-time friend but now foe of Gary and is intent on persuading him to return to London for one last big job

Stars:Ray Winstone, Ben Kingsley and Ian McShane 

 
http://leetleech.org/images/15026048067791129756.png 
http://leetleech.org/images/19561930769988213277.png 
http://leetleech.org/images/02325519606509520622.png 
http://leetleech.org/images/50496500270952603768.png

General
Format : MPEG-4
Format profile : Base Media
Codec ID : isom
File size : 326 MiB
Duration : 1h 28mn
Overall bit rate : 516 Kbps
Source : Sexy.Beast.1080p.AC3(DD).5.1ch.Bluray.PS3 thanks
Sample : Yes 

Video
ID : 1
Format : AVC
Format/Info : Advanced Video Codec
Format profile : High@L4.1
Format settings, CABAC : Yes
Format settings, ReFrames : 4 frames
Codec ID : avc1
Codec ID/Info : Advanced Video Coding
Duration : 1h 28mn
Bit rate mode : Variable
Bit rate : 412 Kbps
Maximum bit rate : 2 207 Kbps
Width : 640 pixels
Height : 360 pixels
Display aspect ratio : 16:9
Frame rate mode : Constant
Frame rate : 23.976 fps
Scan type : Progressive
Bits/(Pixel*Frame) : 0.075
Stream size : 260 MiB (80%)
Title : Imported with GPAC 0.4.6-DEV (build 1)
Writing library : x264 core 92 r1510 33d382a
Subtitles : None

Audio
ID : 2
Format : AAC
Format/Info : Advanced Audio Codec
Format profile : LC
Codec ID : 40
Duration : 1h 28mn
Bit rate mode : Variable
Bit rate : 99.9 Kbps
Maximum bit rate : 173 Kbps
Channel(s) : 2 channels
Channel positions : Front: L R
Sampling rate : 48.0 KHz
Compression mode : Lossy
Stream size : 63.1 MiB (19%)